<svg id="Capa_1" enable-background="new 0 0 512 512" height="512" viewBox="0 0 512 512" width="512" xmlns="http://www.w3.org/2000/svg"><path d="m228.5 181v60h60c16.542 0 30-13.458 30-30s-13.458-30-30-30z"/><path d="m256 90c-91.533 0-166 74.467-166 166s74.467 166 166 166 166-74.467 166-166-74.467-166-166-166zm42.5 271h-10v15c0 8.284-6.716 15-15 15s-15-6.716-15-15v-15h-30v15c0 8.284-6.716 15-15 15s-15-6.716-15-15v-15h-10c-8.284 0-15-6.716-15-15s6.716-15 15-15h10v-75-75h-10c-8.284 0-15-6.716-15-15s6.716-15 15-15h10v-15c0-8.284 6.716-15 15-15s15 6.716 15 15v15h30v-15c0-8.284 6.716-15 15-15s15 6.716 15 15v15c33.084 0 60 26.916 60 60 0 15.673-6.048 29.956-15.923 40.655 15.647 10.839 25.923 28.911 25.923 49.345 0 33.084-26.916 60-60 60z"/><path d="m298.5 271h-10-60v60h70c16.542 0 30-13.458 30-30s-13.458-30-30-30z"/><path d="m437.02 74.98c-48.353-48.351-112.64-74.98-181.02-74.98s-132.667 26.629-181.02 74.98c-48.351 48.353-74.98 112.64-74.98 181.02s26.629 132.667 74.98 181.02c48.353 48.351 112.64 74.98 181.02 74.98s132.667-26.629 181.02-74.98c48.351-48.353 74.98-112.64 74.98-181.02s-26.629-132.667-74.98-181.02zm-181.02 377.02c-108.075 0-196-87.925-196-196s87.925-196 196-196 196 87.925 196 196-87.925 196-196 196z"/></svg>